<svg xmlns="http://www.w3.org/2000/svg" viewBox="0 0 24 23.96"><title>facebook</title><g id="Layer_2" data-name="Layer 2"><g id="Layer_1-2" data-name="Layer 1"><path d="M20.48,0a4.06,4.06,0,0,1,2.34,1.23A3.85,3.85,0,0,1,24,4.05c0,5.28,0,10.56,0,15.84a4.25,4.25,0,0,1-2.7,3.83A3.77,3.77,0,0,1,20,24c-1.34,0-2.68,0-4,0-.26,0-.27,0-.27-.26V15.13c0-.26,0-.27.27-.27h3.44c.29,0,.29,0,.29-.28V11.19c0-.23,0-.24-.24-.24H16c-.28,0-.29,0-.29-.29,0-.51,0-1,0-1.54a1,1,0,0,1,1-.92h2.76c.16,0,.22,0,.22-.21,0-1.19,0-2.37,0-3.55,0-.13,0-.16-.16-.16H16.68a4.16,4.16,0,0,0-3,1.2,5.19,5.19,0,0,0-1.34,2.15A6.31,6.31,0,0,0,12,9.57v1c0,.36,0,.36-.34.36H9.37c-.26,0-.26,0-.26.25v3.4c0,.25,0,.25.25.26h2.32c.35,0,.35,0,.35.34v8.53c0,.17,0,.23-.23.23h-8a3.63,3.63,0,0,1-2.23-.87,4.26,4.26,0,0,1-1.5-2.36A3.47,3.47,0,0,1,0,19.93C0,14.62,0,9.32,0,4A3.86,3.86,0,0,1,1,1.47,4.14,4.14,0,0,1,3.52,0Z"/></g></g></svg>