<svg xmlns="http://www.w3.org/2000/svg" viewBox="0 0 24 24"><defs><style>.cls-1{fill:#231f20;}</style></defs><title>insta</title><g id="Layer_2" data-name="Layer 2"><g id="Layer_1-2" data-name="Layer 1"><path class="cls-1" d="M12.11,8.67a3,3,0,1,0,3,3A2.93,2.93,0,0,0,12.11,8.67Z"/><path class="cls-1" d="M16.76,4.42a7.3,7.3,0,0,0-1.32-.14c-1.64,0-3.28,0-4.92,0a17.49,17.49,0,0,0-3,.13A3.07,3.07,0,0,0,4.9,7a8.31,8.31,0,0,0-.13,1.32c0,1.64,0,3.28,0,4.92a17.49,17.49,0,0,0,.13,3,3,3,0,0,0,2.65,2.64A5.48,5.48,0,0,0,8.61,19c2.54,0,5.08.09,7.61,0a3.14,3.14,0,0,0,3.1-2.59A6.34,6.34,0,0,0,19.46,15c0-1.1,0-2.21,0-3.32,0-1.38,0-2.75-.06-4.13A3.16,3.16,0,0,0,16.76,4.42ZM12.11,16.34a4.71,4.71,0,1,1,4.72-4.7A4.74,4.74,0,0,1,12.11,16.34ZM17,7.93A1.14,1.14,0,1,1,18.09,6.8,1.14,1.14,0,0,1,17,7.93Z"/><path class="cls-1" d="M20,0H4A4,4,0,0,0,0,4V20a4,4,0,0,0,4,4H20a4,4,0,0,0,4-4V4A4,4,0,0,0,20,0Zm1.18,15.56c0,.27-.06.54-.11.8a4.74,4.74,0,0,1-3.48,4.06,9.21,9.21,0,0,1-1.54.27H8.19l-.8-.1A4.8,4.8,0,0,1,3.27,16.9,8.72,8.72,0,0,1,3,14.74V8.52A9.74,9.74,0,0,1,3.16,6.9,4.75,4.75,0,0,1,6.65,2.84,8.53,8.53,0,0,1,9,2.55h6.22a8.78,8.78,0,0,1,1.62.13,4.76,4.76,0,0,1,4.09,3.57,10.2,10.2,0,0,1,.24,1.45Z"/></g></g></svg>