<svg xmlns="http://www.w3.org/2000/svg" viewBox="0 0 24 24.45"><title>linkedin</title><g id="Layer_2" data-name="Layer 2"><g id="Layer_1-2" data-name="Layer 1"><path d="M24,4.17V20.24c0,.13-.07.26-.11.39a5,5,0,0,1-5,3.81h-14a5,5,0,0,1-4.88-5C0,14.63,0,9.78,0,4.94A4.58,4.58,0,0,1,.38,3.11,5.14,5.14,0,0,1,4.13,0H19.91A5.22,5.22,0,0,1,24,4.17ZM13,9.82c0-.42,0-.8,0-1.19s-.13-.46-.45-.46h-2c-.34,0-.48.13-.48.48q0,5.08,0,10.17c0,.36.16.47.49.46.57,0,1.13,0,1.7,0,.73,0,.73,0,.73-.72v-5A2.68,2.68,0,0,1,13.41,12a1.89,1.89,0,0,1,1.83-.92,1.86,1.86,0,0,1,1.62,1.31,3.19,3.19,0,0,1,.19,1.15c0,1.71,0,3.42,0,5.13,0,.41.12.59.54.58.64,0,1.27,0,1.9,0,.33,0,.5-.11.49-.46,0-2.39.11-4.78-.09-7.17a3.45,3.45,0,0,0-2.15-3.16,3.83,3.83,0,0,0-4,.61C13.52,9.31,13.29,9.54,13,9.82Zm-5,4c0-1.68,0-3.35,0-5,0-.39-.09-.6-.53-.58-.64,0-1.29,0-1.94,0-.31,0-.45.13-.45.46v10.2c0,.32.14.46.45.45.61,0,1.23,0,1.84,0s.64-.14.64-.64C8,17,8,15.4,8,13.78ZM8.2,5.05a1.67,1.67,0,1,0-3.34,0A1.7,1.7,0,0,0,6.53,6.78,1.71,1.71,0,0,0,8.2,5.05Z"/></g></g></svg>