<svg xmlns="http://www.w3.org/2000/svg" viewBox="0 0 128 34.65"><defs><style>.cls-1{fill:#fff;}.cls-2{fill:#7dc243;}.cls-3{fill:#08b4b5;}.cls-4{fill:#cc8c4d;}</style></defs><title>truebasics_logo</title><g id="Layer_2" data-name="Layer 2"><g id="Layer_1-2" data-name="Layer 1"><polygon class="cls-1" points="10.91 12.95 6.88 12.95 6.88 24.43 4.03 24.43 4.03 12.95 0 12.95 0 10.65 10.91 10.65 10.91 12.95"/><path class="cls-1" d="M24.76,24.43H22.18a1.1,1.1,0,0,1-1-.55l-2.62-4.23a.93.93,0,0,0-.93-.47h-1v5.25H13.77V10.65H18.1a8.88,8.88,0,0,1,2.47.3,4.89,4.89,0,0,1,1.68.83,3.18,3.18,0,0,1,1,1.27,4.25,4.25,0,0,1,.3,1.62,4.31,4.31,0,0,1-.19,1.3,3.89,3.89,0,0,1-.57,1.11,3.85,3.85,0,0,1-.91.89,4.75,4.75,0,0,1-1.23.63,2.54,2.54,0,0,1,.51.37,2.63,2.63,0,0,1,.43.5Zm-6.68-7.25a3.61,3.61,0,0,0,1.2-.18,2.34,2.34,0,0,0,.82-.48,1.86,1.86,0,0,0,.48-.73,2.67,2.67,0,0,0,.15-.91,1.87,1.87,0,0,0-.65-1.52,3,3,0,0,0-2-.54H16.62v4.36Z"/><path class="cls-1" d="M32.76,22.15A3.31,3.31,0,0,0,34,21.92a2.81,2.81,0,0,0,.93-.66,3.08,3.08,0,0,0,.58-1,4.42,4.42,0,0,0,.2-1.36V10.65h2.85v8.21a6.35,6.35,0,0,1-.41,2.3,5.09,5.09,0,0,1-3,3,7.18,7.18,0,0,1-4.84,0,5.14,5.14,0,0,1-3-3,6.57,6.57,0,0,1-.4-2.3V10.65H29.8v8.21a4.42,4.42,0,0,0,.2,1.36,2.78,2.78,0,0,0,.58,1,2.62,2.62,0,0,0,.93.66,3.28,3.28,0,0,0,1.25.23"/><polygon class="cls-1" points="45.29 12.88 45.29 16.43 49.88 16.43 49.88 18.58 45.29 18.58 45.29 22.2 51.2 22.2 51.2 24.43 42.42 24.43 42.42 10.65 51.2 10.65 51.2 12.88 45.29 12.88"/><path class="cls-1" d="M60.17,10.65a9.58,9.58,0,0,1,2.37.26,4.57,4.57,0,0,1,1.6.74,2.79,2.79,0,0,1,.91,1.17,3.9,3.9,0,0,1,.28,1.53,2.88,2.88,0,0,1-.56,1.73,3.38,3.38,0,0,1-.75.7,4.53,4.53,0,0,1-1.08.53A3.91,3.91,0,0,1,65,18.39a2.8,2.8,0,0,1,.67,1.95A4,4,0,0,1,65.36,22a3.69,3.69,0,0,1-1,1.3,4.49,4.49,0,0,1-1.59.86,6.85,6.85,0,0,1-2.17.31H55.28V10.65Zm-2,2.17v3.72H60a4.83,4.83,0,0,0,1.06-.1,2.13,2.13,0,0,0,.78-.32,1.4,1.4,0,0,0,.48-.57,2.06,2.06,0,0,0,.16-.86,2.55,2.55,0,0,0-.13-.88,1.4,1.4,0,0,0-.43-.58,1.83,1.83,0,0,0-.72-.31,4.44,4.44,0,0,0-1-.1Zm2.44,9.43a3.22,3.22,0,0,0,1.12-.17,2,2,0,0,0,.71-.44,1.5,1.5,0,0,0,.37-.63,2.59,2.59,0,0,0,.1-.74,2.19,2.19,0,0,0-.12-.75,1.32,1.32,0,0,0-.4-.56,1.74,1.74,0,0,0-.72-.36,4.13,4.13,0,0,0-1.08-.12H58.13v3.77Z"/><path class="cls-1" d="M80.85,24.43H78.64a.95.95,0,0,1-1-.63l-.93-2.63H71.27l-.93,2.63a1.14,1.14,0,0,1-.33.44.92.92,0,0,1-.6.19H67.18l5.38-13.78h2.92ZM76.06,19.2,74.57,15c-.09-.22-.18-.48-.28-.78s-.19-.62-.28-1c-.09.36-.18.69-.28,1s-.19.56-.28.78L72,19.2Z"/><path class="cls-1" d="M90.73,13.29a1.13,1.13,0,0,1-.27.32.59.59,0,0,1-.36.1.86.86,0,0,1-.45-.15c-.16-.1-.35-.2-.57-.32a4.71,4.71,0,0,0-.74-.31,2.88,2.88,0,0,0-1-.15,2.2,2.2,0,0,0-1.48.44,1.49,1.49,0,0,0-.49,1.15,1.09,1.09,0,0,0,.27.76,2.46,2.46,0,0,0,.71.52,8.71,8.71,0,0,0,1,.39c.38.11.76.24,1.15.37a10.69,10.69,0,0,1,1.15.48,4,4,0,0,1,1,.69,3.08,3.08,0,0,1,.72,1,3.56,3.56,0,0,1,.27,1.46,4.63,4.63,0,0,1-.33,1.76,4.18,4.18,0,0,1-2.47,2.4,5.51,5.51,0,0,1-2,.35,6.4,6.4,0,0,1-1.31-.13,7.62,7.62,0,0,1-1.26-.37,7.47,7.47,0,0,1-1.13-.57,5,5,0,0,1-.93-.74L83,21.42a.93.93,0,0,1,.27-.25.7.7,0,0,1,.36-.1,1,1,0,0,1,.54.19l.66.42a5.31,5.31,0,0,0,.86.42,3.33,3.33,0,0,0,1.17.19,2.34,2.34,0,0,0,1.54-.46A1.65,1.65,0,0,0,89,20.47a1.25,1.25,0,0,0-.27-.84,2.21,2.21,0,0,0-.71-.55,5.69,5.69,0,0,0-1-.37c-.38-.1-.76-.22-1.15-.35a8.85,8.85,0,0,1-1.15-.45,3.37,3.37,0,0,1-1-.71A3.33,3.33,0,0,1,83,16.12a4.14,4.14,0,0,1-.27-1.6A3.65,3.65,0,0,1,83,13a3.78,3.78,0,0,1,.89-1.29,4.46,4.46,0,0,1,1.45-.9,5.25,5.25,0,0,1,2-.34,6.85,6.85,0,0,1,2.3.38A5.3,5.3,0,0,1,91.43,12Z"/><rect class="cls-1" x="94.87" y="10.65" width="2.87" height="13.78"/><path class="cls-1" d="M111.14,21a.53.53,0,0,1,.4.17l1.13,1.21A5.36,5.36,0,0,1,110.6,24a7.19,7.19,0,0,1-2.95.55,7,7,0,0,1-2.78-.52,5.94,5.94,0,0,1-2.1-1.47,6.49,6.49,0,0,1-1.33-2.23,8.6,8.6,0,0,1-.24-4.78,6.81,6.81,0,0,1,.65-1.7,6.25,6.25,0,0,1,1-1.4,5.9,5.9,0,0,1,1.36-1.07,6.58,6.58,0,0,1,1.66-.68,7.81,7.81,0,0,1,1.91-.23,7.35,7.35,0,0,1,1.44.13,7.2,7.2,0,0,1,1.27.37,5.58,5.58,0,0,1,1.08.58,5.51,5.51,0,0,1,.9.73l-1,1.31a.73.73,0,0,1-.21.22.58.58,0,0,1-.37.1.88.88,0,0,1-.46-.16c-.15-.11-.34-.23-.57-.37a4.22,4.22,0,0,0-.84-.36,4.62,4.62,0,0,0-1.29-.16,3.88,3.88,0,0,0-1.58.32,3.28,3.28,0,0,0-1.24.9,4.22,4.22,0,0,0-.81,1.46,6.29,6.29,0,0,0-.28,2,5.8,5.8,0,0,0,.31,2A4.24,4.24,0,0,0,105,21a3.63,3.63,0,0,0,1.26.91,3.77,3.77,0,0,0,1.53.31,7.89,7.89,0,0,0,.88-.05,3.38,3.38,0,0,0,.73-.16,3.69,3.69,0,0,0,.64-.29,4.59,4.59,0,0,0,.6-.46,1,1,0,0,1,.22-.14.5.5,0,0,1,.24-.06"/><path class="cls-1" d="M122.88,13.29a1.13,1.13,0,0,1-.27.32.56.56,0,0,1-.35.1.92.92,0,0,1-.46-.15l-.56-.32a5.15,5.15,0,0,0-.74-.31,2.93,2.93,0,0,0-1-.15,2.18,2.18,0,0,0-1.48.44,1.46,1.46,0,0,0-.49,1.15,1,1,0,0,0,.27.76,2.33,2.33,0,0,0,.71.52,8,8,0,0,0,1,.39l1.15.37c.39.14.77.3,1.15.48a4.34,4.34,0,0,1,1,.69,3.2,3.2,0,0,1,.71,1,3.56,3.56,0,0,1,.27,1.46,4.83,4.83,0,0,1-.32,1.76,4.18,4.18,0,0,1-2.47,2.4,5.56,5.56,0,0,1-2.06.35,6.47,6.47,0,0,1-1.31-.13,7.5,7.5,0,0,1-1.25-.37,7,7,0,0,1-1.13-.57,5,5,0,0,1-.94-.74l.84-1.35a.85.85,0,0,1,.28-.25.65.65,0,0,1,.36-.1,1,1,0,0,1,.54.19l.65.42a6.27,6.27,0,0,0,.86.42,3.43,3.43,0,0,0,1.18.19,2.38,2.38,0,0,0,1.54-.46,1.68,1.68,0,0,0,.54-1.36,1.3,1.3,0,0,0-.26-.84,2.21,2.21,0,0,0-.71-.55,5.81,5.81,0,0,0-1-.37c-.37-.1-.76-.22-1.15-.35a10.13,10.13,0,0,1-1.15-.45,3.46,3.46,0,0,1-1-.71,3.17,3.17,0,0,1-.71-1.08,4.14,4.14,0,0,1-.27-1.6,3.84,3.84,0,0,1,1.19-2.78,4.69,4.69,0,0,1,1.45-.9,5.25,5.25,0,0,1,2-.34,6.81,6.81,0,0,1,2.3.38,5.35,5.35,0,0,1,1.8,1.07Z"/><path class="cls-1" d="M126,6.7a2,2,0,1,1-2,2A2,2,0,0,1,126,6.7Zm0,.37a1.63,1.63,0,1,0,1.59,1.62A1.62,1.62,0,0,0,126,7.07Zm-.75.46h.88c.53,0,.79.22.79.66a.61.61,0,0,1-.59.65l.66,1h-.44l-.66-1h-.28v1h-.36Zm.36,1H126c.36,0,.54-.1.54-.35s-.18-.31-.42-.31h-.53Z"/><path class="cls-1" d="M19.92,32.74a2.28,2.28,0,0,1-1.61.66,2.26,2.26,0,1,1,0-4.51,2.28,2.28,0,0,1,1.61.66l-.23.2a1.94,1.94,0,0,0-1.38-.56,2,2,0,0,0,0,3.9,2,2,0,0,0,1.39-.56Z"/><path class="cls-1" d="M20.91,28.94v4.41H20.6V28.94Z"/><path class="cls-1" d="M22.18,29.22a.25.25,0,0,1-.5,0A.25.25,0,0,1,22.18,29.22Zm-.41,1v3.13h.31V30.22Z"/><path class="cls-1" d="M23.27,30.24v.55a1.24,1.24,0,0,1,1.11-.61,1.3,1.3,0,0,1,1.4,1.38v1.79h-.3V31.56a1,1,0,0,0-1.12-1.08,1.09,1.09,0,0,0-1.09,1.14v1.73H23V30.24Z"/><path class="cls-1" d="M27,29.22a.25.25,0,0,1-.5,0A.25.25,0,0,1,27,29.22Zm-.41,1v3.13h.31V30.22Z"/><path class="cls-1" d="M30.34,32.92a1.64,1.64,0,0,1-1.14.47,1.54,1.54,0,0,1-1.6-1.59,1.52,1.52,0,0,1,1.6-1.59,1.63,1.63,0,0,1,1.14.46l-.2.2a1.33,1.33,0,0,0-.94-.37,1.3,1.3,0,0,0,0,2.6,1.33,1.33,0,0,0,.93-.39Z"/><path class="cls-1" d="M34,30.24v3.11h-.31v-.66a1.45,1.45,0,0,1-1.28.71,1.6,1.6,0,0,1,0-3.2,1.41,1.41,0,0,1,1.28.72v-.68ZM31.11,31.8a1.25,1.25,0,0,0,1.27,1.3,1.3,1.3,0,1,0,0-2.6A1.24,1.24,0,0,0,31.11,31.8Z"/><path class="cls-1" d="M35.12,28.94v4.41h-.31V28.94Z"/><path class="cls-1" d="M36.29,28.94v4.41H36V28.94Z"/><path class="cls-1" d="M39.88,30.24,38,34.65h-.33l.58-1.33L37,30.24h.33L38,32.08l.36.9.36-.91.79-1.83Z"/><path class="cls-1" d="M45.8,33.35h-.45l-1.53-1.67h-1.2v1.67h-.34V28.94h1.94a1.35,1.35,0,0,1,1.45,1.37,1.3,1.3,0,0,1-1.43,1.35Zm-3.18-2h1.56a1,1,0,0,0,1.12-1.05,1,1,0,0,0-1.08-1.06h-1.6Z"/><path class="cls-1" d="M46.13,31.8a1.57,1.57,0,0,1,1.59-1.61,1.45,1.45,0,0,1,1.54,1.75H46.45a1.23,1.23,0,0,0,1.27,1.16,1.46,1.46,0,0,0,1.12-.48l.22.18a1.69,1.69,0,0,1-1.34.6A1.53,1.53,0,0,1,46.13,31.8ZM49,31.67a1.15,1.15,0,0,0-1.26-1.2,1.25,1.25,0,0,0-1.27,1.2Z"/><path class="cls-1" d="M52.2,30.8a1.37,1.37,0,0,0-1-.32c-.49,0-1,.17-.94.57s.55.5.94.57c.56.09,1.32.19,1.29.91s-.73.87-1.28.87a1.59,1.59,0,0,1-1.36-.62l.22-.2a1.4,1.4,0,0,0,1.14.53c.38,0,1-.1,1-.6s-.51-.53-1-.61S50,31.68,50,31.06s.6-.88,1.24-.87a1.64,1.64,0,0,1,1.16.41Z"/><path class="cls-1" d="M53,31.8a1.57,1.57,0,0,1,1.58-1.61,1.45,1.45,0,0,1,1.54,1.75h-2.8a1.23,1.23,0,0,0,1.26,1.16,1.49,1.49,0,0,0,1.13-.48l.22.18a1.71,1.71,0,0,1-1.35.6A1.53,1.53,0,0,1,53,31.8Zm2.85-.13a1.15,1.15,0,0,0-1.27-1.2,1.24,1.24,0,0,0-1.26,1.2Z"/><path class="cls-1" d="M60,30.24v3.11h-.31v-.66a1.44,1.44,0,0,1-1.27.71,1.6,1.6,0,0,1,0-3.2,1.41,1.41,0,0,1,1.27.72v-.68ZM57.09,31.8a1.25,1.25,0,0,0,1.28,1.3,1.3,1.3,0,0,0,0-2.6A1.24,1.24,0,0,0,57.09,31.8Z"/><path class="cls-1" d="M61.08,30.24v.55a1.1,1.1,0,0,1,1-.58,1.17,1.17,0,0,1,.67.18l-.14.25a1,1,0,0,0-.53-.14,1,1,0,0,0-1,1v1.81h-.31V30.24Z"/><path class="cls-1" d="M65.82,32.92a1.62,1.62,0,0,1-1.14.47,1.54,1.54,0,0,1-1.6-1.59,1.52,1.52,0,0,1,1.6-1.59,1.61,1.61,0,0,1,1.14.46l-.2.2a1.33,1.33,0,0,0-.94-.37,1.3,1.3,0,0,0,0,2.6,1.33,1.33,0,0,0,.93-.39Z"/><path class="cls-1" d="M66.75,28.94v1.88a1.25,1.25,0,0,1,1.12-.63,1.23,1.23,0,0,1,1.31,1.38v1.78h-.31V31.57c0-.65-.3-1.08-1-1.08a1.09,1.09,0,0,0-1.11,1.15v1.71h-.31V28.94Z"/><path class="cls-1" d="M69.81,31.8a1.56,1.56,0,0,1,1.58-1.61,1.45,1.45,0,0,1,1.54,1.75H70.12a1.24,1.24,0,0,0,1.27,1.16,1.49,1.49,0,0,0,1.13-.48l.22.18a1.73,1.73,0,0,1-1.35.6A1.52,1.52,0,0,1,69.81,31.8Zm2.84-.13a1.14,1.14,0,0,0-1.26-1.2,1.25,1.25,0,0,0-1.27,1.2Z"/><path class="cls-1" d="M76.72,28.94v4.41h-.3v-.68a1.47,1.47,0,0,1-1.3.73,1.49,1.49,0,0,1-1.56-1.6,1.51,1.51,0,0,1,1.57-1.61,1.37,1.37,0,0,1,1.29.73v-2ZM73.86,31.8a1.21,1.21,0,0,0,1.28,1.3,1.31,1.31,0,0,0,0-2.62A1.22,1.22,0,0,0,73.86,31.8Z"/><path class="cls-1" d="M79.74,31h2.59v.3H79.74V33h2.79v.32H79.41V28.94h3v.32H79.74Z"/><path class="cls-1" d="M85.42,30.8a1.34,1.34,0,0,0-1-.32c-.48,0-1,.17-.94.57s.56.5.95.57c.55.09,1.32.19,1.29.91s-.74.87-1.28.87a1.6,1.6,0,0,1-1.37-.62l.23-.2a1.4,1.4,0,0,0,1.14.53c.38,0,1-.1,1-.6s-.5-.53-1-.61-1.21-.22-1.21-.84.6-.88,1.23-.87a1.6,1.6,0,0,1,1.16.41Z"/><path class="cls-1" d="M88.57,30.8a1.34,1.34,0,0,0-1-.32c-.48,0-.95.17-.94.57s.56.5,1,.57c.55.09,1.32.19,1.29.91s-.74.87-1.29.87a1.6,1.6,0,0,1-1.36-.62l.23-.2a1.38,1.38,0,0,0,1.14.53c.38,0,.95-.1,1-.6s-.5-.53-1-.61-1.21-.22-1.22-.84.61-.88,1.24-.87a1.62,1.62,0,0,1,1.16.41Z"/><path class="cls-1" d="M89.41,31.8A1.56,1.56,0,0,1,91,30.19a1.45,1.45,0,0,1,1.54,1.75H89.72A1.23,1.23,0,0,0,91,33.1a1.46,1.46,0,0,0,1.12-.48l.22.18a1.69,1.69,0,0,1-1.34.6A1.52,1.52,0,0,1,89.41,31.8Zm2.84-.13A1.14,1.14,0,0,0,91,30.47a1.25,1.25,0,0,0-1.27,1.2Z"/><path class="cls-1" d="M93.63,30.24v.55a1.25,1.25,0,0,1,1.11-.61,1.3,1.3,0,0,1,1.41,1.38v1.79h-.31V31.56a1,1,0,0,0-1.11-1.08,1.09,1.09,0,0,0-1.09,1.14v1.73h-.31V30.24Z"/><path class="cls-1" d="M97.54,29.3v.94H98.6v.26H97.54v1.9c0,.42.09.71.57.71a1.17,1.17,0,0,0,.48-.12l.11.25a1.27,1.27,0,0,1-.59.16c-.66,0-.87-.39-.87-1V30.5h-.67v-.26h.67v-.91Z"/><path class="cls-1" d="M99.72,29.22a.25.25,0,0,1-.5,0A.25.25,0,0,1,99.72,29.22Zm-.41,1v3.13h.31V30.22Z"/><path class="cls-1" d="M103.5,30.24v3.11h-.31v-.66a1.44,1.44,0,0,1-1.27.71,1.6,1.6,0,0,1,0-3.2,1.41,1.41,0,0,1,1.27.72v-.68Zm-2.86,1.56a1.25,1.25,0,0,0,1.28,1.3,1.3,1.3,0,0,0,0-2.6A1.24,1.24,0,0,0,100.64,31.8Z"/><path class="cls-1" d="M104.65,28.94v4.41h-.31V28.94Z"/><path class="cls-1" d="M107.65,30.8a1.34,1.34,0,0,0-1-.32c-.48,0-1,.17-.94.57s.56.5,1,.57c.55.09,1.32.19,1.29.91s-.74.87-1.28.87a1.6,1.6,0,0,1-1.37-.62l.23-.2a1.4,1.4,0,0,0,1.14.53c.38,0,1-.1,1-.6s-.5-.53-1-.61-1.21-.22-1.21-.84.6-.88,1.23-.87a1.62,1.62,0,0,1,1.16.41Z"/><path class="cls-2" d="M100.81,1.06a3.61,3.61,0,1,0,0,5.1,6.77,6.77,0,0,1,.78-.68l4.16-3.73c-1.69,1.3-3.19,1.07-4.94-.69"/><path class="cls-3" d="M120.2,0a3.56,3.56,0,0,0-2.55,1.06q-.41.39-.78.69L112.7,5.48c1.69-1.3,3.19-1.07,5,.69A3.61,3.61,0,1,0,120.2,0"/><path class="cls-4" d="M111.92,1.06A3.59,3.59,0,0,0,109.37,0h-.28a3.6,3.6,0,0,0-2.56,1.06,8,8,0,0,1-.78.69l-4.16,3.73c1.69-1.3,3.18-1.07,4.94.68a3.6,3.6,0,0,0,2.56,1.06h.28a3.59,3.59,0,0,0,2.55-1.06,6.77,6.77,0,0,1,.78-.68l4.17-3.73c-1.69,1.3-3.19,1.07-5-.69"/></g></g></svg>