<svg xmlns="http://www.w3.org/2000/svg" viewBox="0 0 24 24"><title>twitter</title><g id="Layer_2" data-name="Layer 2"><g id="Layer_1-2" data-name="Layer 1"><path d="M0,12V4.45A4.44,4.44,0,0,1,4.44,0H19.57A4.44,4.44,0,0,1,24,4.42V19.55A4.44,4.44,0,0,1,19.56,24H4.43A4.44,4.44,0,0,1,0,19.58ZM5.33,16.9a2.07,2.07,0,0,0,.25.15,8.1,8.1,0,0,0,7.43.31A8.2,8.2,0,0,0,18,9.73.91.91,0,0,1,18.28,9a13.13,13.13,0,0,0,1-1.06l0,0-1.41.36A3.76,3.76,0,0,0,19,6.76l-1.46.51A.47.47,0,0,1,17,7.15a2.91,2.91,0,0,0-4.28.45A3,3,0,0,0,12.14,10,8.52,8.52,0,0,1,6,7a3,3,0,0,0,.84,3.86l-.06.07-1.18-.3a3.21,3.21,0,0,0,2.22,2.9l-1.14.06a2.43,2.43,0,0,0,1,1.37,13.87,13.87,0,0,0,1.57.7A6.43,6.43,0,0,1,5.33,16.9Z"/></g></g></svg>